# xmcd
#
# Track frame offsets:
#	150
#	16867
#	30937
#	45142
#	56387
#	73637
#	89145
#	102537
#	116657
#	128300
#	143722
#	159457
#
# Disc length: 2333 seconds
#
# Revision: 1
# Processed by: cddbd v1.4PL0 Copyright (c) Steve Scherf et al.
# Submitted via: audiograbber 1.80.04
#
DISCID=8f091b0c
DTITLE=Greyhounds - Locker vom Hocker
DYEAR=1987
DGENRE=Country
TTITLE0=San Antonio Lady
TTITLE1=Locker vom Hocker
TTITLE2=Es Gab Immer Zu Futtern
TTITLE3=Stand Up
TTITLE4=Heimweh nach Gestern
TTITLE5=U S A
TTITLE6=Sonne weck mich auf
TTITLE7=Na siehste
TTITLE8=Käitschn Quetschn (Cajun Akkordeon)
TTITLE9=Jamaica Cowboy
TTITLE10=Country Song
TTITLE11=Es ist vorbei
EXTD=Koch Records C 121 757
EXTT0=
EXTT1=
EXTT2=
EXTT3=
EXTT4=
EXTT5=
EXTT6=
EXTT7=
EXTT8=
EXTT9=
EXTT10=
EXTT11=
PLAYORDER=
